:SAMPLES-PER-SECOND 24
:FULLY-SPECIFIED
:DEGREES
130
root  -2.60103 37.3973 64.1254 176.486 59.2895 179.798
RightUpLeg  2.53888 -21.7563 -22.3063
RightLeg  29.0618 11.4651 6.60529
RightFoot  -16.4894 0.686791 17.6526
RightToes  -1.74623e-010 0 -2.59999e-017
Spine  7.61707 1.28455 2.60194
Spine1  13.262 2.91065 -5.50057
HEad  -6.22248 46.3174 -24.2152
LeftShoulder1  1.76145 -3.06099 -20.399
LeftArm  1.837 8.51089 -39.5096
LeftForeArm  25.4573 -55.1419 -14.0382
LeftHand  0.438951 11.2425 9.4866
RightShoulder  2.70386 4.83642 26.4107
RightArm  6.40302 10.7485 46.4962
RightForeArm  116.452 77.1963 125.351
RightHand  0.387987 -9.17048 -12.7676
LeftUpLeg  -12.5152 11.9351 19.6922
LeftLeg  21.2416 8.40313 3.9198
LeftFoot  6.06604 1.67331 -11.1453
LeftToes  -6.27559e-011 -2.10356e-011 8.24929e-012
131
root  -2.43864 37.5023 65.0928 171.999 60.6968 175.706
RightUpLeg  1.13319 -21.453 -23.3578
RightLeg  32.0683 12.7677 8.25921
RightFoot  -17.2424 0.767969 17.0819
RightToes  -1.74623e-010 0 -2.59999e-017
Spine  8.41621 0.868703 2.00722
Spine1  14.8032 2.81725 -6.37646
HEad  -9.94121 47.3263 -28.1167
LeftShoulder1  1.82163 -3.04473 -21.4509
LeftArm  -1.46041 11.7628 -41.9167
LeftForeArm  45.5056 -57.6595 -13.728
LeftHand  -0.136511 14.8862 -0.943756
RightShoulder  2.71066 4.84381 26.4657
RightArm  8.65467 12.439 46.8439
RightForeArm  114.477 79.0164 114.024
RightHand  0.769389 -14.8235 -10.3125
LeftUpLeg  -10.6177 7.15453 18.3055
LeftLeg  19.4526 17.2546 6.99635
LeftFoot  10.1694 1.02847 -5.75319
LeftToes  -6.27559e-011 -2.10356e-011 8.24929e-012
132
root  -2.27072 38.136 65.6806 170.883 61.814 173.518
RightUpLeg  0.176104 -19.6238 -21.922
RightLeg  29.4039 11.6256 6.80632
RightFoot  -14.6419 0.402655 17.2671
RightToes  -1.74623e-010 0 -2.59999e-017
Spine  7.59296 1.19348 2.44456
Spine1  15.0707 3.46248 -6.98366
HEad  -9.56024 47.1299 -27.4513
LeftShoulder1  1.84473 -3.06711 -21.7241
LeftArm  -0.262762 16.5642 -44.5891
LeftForeArm  55.0353 -61.8113 -15.6437
LeftHand  -0.34928 11.7917 -4.89077
RightShoulder  2.72609 4.85997 26.5922
RightArm  8.90879 7.23642 45.3097
RightForeArm  130.694 77.8915 125.773
RightHand  0.189131 -17.6485 -2.56569
LeftUpLeg  -10.464 10.4125 16.3467
LeftLeg  17.3704 13.9625 5.1831
LeftFoot  12.557 0.580488 -3.06026
LeftToes  -6.27559e-011 -2.10356e-011 8.24929e-012
133
root  -2.13242 39.0186 65.9132 171.572 61.9076 172.6
RightUpLeg  0.944708 -18.2292 -20.1775
RightLeg  22.7752 8.90664 3.88191
RightFoot  -9.98387 -0.263011 16.5716
RightToes  -1.74623e-010 0 -2.59999e-017
Spine  6.26279 1.55565 3.677
Spine1  14.4463 4.08581 -7.28896
HEad  -7.11786 46.2629 -25.0364
LeftShoulder1  1.89481 -3.22771 -21.8036
LeftArm  2.46779 21.6763 -45.7428
LeftForeArm  50.5223 -65.5102 -19.4839
LeftHand  -0.0455784 5.67098 -6.38438
RightShoulder  2.74735 4.82268 27.0102
RightArm  8.64842 -1.18034 42.4846
RightForeArm  138.762 73.5581 142.15
RightHand  -0.298242 -17.1655 1.93445
LeftUpLeg  -12.0237 16.4556 13.3653
LeftLeg  18.075 -1.6876 -0.358208
LeftFoot  11.6998 1.395 -7.20679
LeftToes  -6.27559e-011 -2.10356e-011 8.24929e-012
134
root  -2.07786 39.7135 65.8834 170.78 61.8454 170.799
RightUpLeg  2.01933 -16.9916 -20.1936
RightLeg  17.815 6.84387 2.39264
RightFoot  -5.33071 -0.932116 16.9432
RightToes  -1.74623e-010 0 -2.59999e-017
Spine  5.48324 1.76137 4.74461
Spine1  14.3563 4.6068 -7.882
HEad  -6.48103 45.3934 -24.2603
LeftShoulder1  1.91308 -3.29704 -21.7849
LeftArm  3.5614 25.535 -46.4807
LeftForeArm  46.8236 -69.6199 -25.5943
LeftHand  0.167163 3.00222 -9.23393
RightShoulder  2.71676 4.73075 27.0074
RightArm  8.41775 -8.41844 40.2994
RightForeArm  134.088 68.6585 150.562
RightHand  -0.638128 -15.4496 6.12955
LeftUpLeg  -13.0913 18.0993 9.71261
LeftLeg  20.8695 -9.23054 -3.54413
LeftFoot  10.0078 2.02156 -11.0243
LeftToes  -6.27559e-011 -2.10356e-011 8.24929e-012
135
root  -2.08608 40.0839 65.8668 169.703 62.5343 169.391
RightUpLeg  2.69299 -15.2632 -20.4057
RightLeg  14.7843 5.47603 2.15846
RightFoot  -2.68451 -1.32711 17.1845
RightToes  -1.74623e-010 0 -2.59999e-017
Spine  5.478 2.16224 5.34911
Spine1  14.4547 5.20622 -8.2849
HEad  -7.41728 44.9098 -24.3403
LeftShoulder1  1.84526 -3.17839 -21.2348
LeftArm  3.99199 27.0011 -47.563
LeftForeArm  51.7194 -73.0274 -32.0094
LeftHand  0.110655 3.53341 -8.45491
RightShoulder  2.66815 4.71529 26.4575
RightArm  7.65441 -13.2484 39.0237
RightForeArm  128.656 65.3464 154.193
RightHand  -0.983512 -14.0883 11.5963
LeftUpLeg  -13.2582 19.9044 7.06279
LeftLeg  23.3541 -6.40062 -2.68398
LeftFoot  8.99376 1.99062 -11.3769
LeftToes  -6.27559e-011 -2.10356e-011 8.24929e-012
136
root  -2.14485 40.0434 65.9441 168.33 63.5927 168.713
RightUpLeg  3.47416 -13.9789 -20.2616
RightLeg  13.649 4.40833 1.84613
RightFoot  -3.16498 -1.19666 16.3109
RightToes  -1.74623e-010 0 -2.59999e-017
Spine  6.83242 2.67989 5.20926
Spine1  14.0943 5.65931 -7.81744
HEad  -8.68692 44.6442 -24.2719
LeftShoulder1  1.76523 -3.09211 -20.3258
LeftArm  4.48244 25.889 -48.0399
LeftForeArm  58.4959 -75.0085 -36.7113
LeftHand  -0.00698504 4.94801 -6.43563
RightShoulder  2.67089 4.82968 26.0255
RightArm  6.64906 -15.5345 37.9136
RightForeArm  126.191 64.151 155.265
RightHand  -0.890804 -12.146 13.533
LeftUpLeg  -12.5295 22.9181 5.66821
LeftLeg  25.8878 -3.49354 -1.51394
LeftFoot  8.01386 1.593 -9.62152
LeftToes  -6.27559e-011 -2.10356e-011 8.24929e-012
137
root  -2.2558 39.6775 65.9723 167.711 63.8466 169.326
RightUpLeg  4.22973 -13.9111 -20.1353
RightLeg  14.6262 4.32533 1.61864
RightFoot  -5.94414 -0.795382 15.9165
RightToes  -1.74623e-010 0 -2.59999e-017
Spine  7.89697 2.57495 5.0177
Spine1  14.7296 5.42381 -7.12423
HEad  -10.5859 44.5815 -24.511
LeftShoulder1  1.72077 -3.05077 -19.7774
LeftArm  4.89406 21.9342 -47.3535
LeftForeArm  55.2051 -74.5362 -35.7726
LeftHand  -0.0230683 5.12099 -3.65638
RightShoulder  2.70194 4.9113 26.0853
RightArm  5.24985 -14.0592 36.3497
RightForeArm  121.235 66.2387 152.472
RightHand  -0.548322 -9.97021 11.842
LeftUpLeg  -11.0926 23.5184 4.99025
LeftLeg  27.1473 -1.9092 -0.71415
LeftFoot  4.703 0.981239 -7.14762
LeftToes  -6.27559e-011 -2.10356e-011 8.24929e-012
138
root  -2.37898 39.2531 65.849 170.379 63.1555 172.515
RightUpLeg  4.404 -15.5318 -19.422
RightLeg  15.8917 5.65625 1.96087
RightFoot  -8.65 -0.439236 16.0814
RightToes  -1.74623e-010 0 -2.59999e-017
Spine  6.57886 1.72018 4.82156
Spine1  16.7165 3.94877 -5.62621
HEad  -11.6594 45.8601 -25.2378
LeftShoulder1  1.7068 -2.83251 -20.5099
LeftArm  5.26806 15.9383 -45.7518
LeftForeArm  44.4607 -70.3892 -27.4155
LeftHand  -0.0304863 4.48163 0.882702
RightShoulder  2.70541 4.8614 26.329
RightArm  3.89522 -8.51511 34.4991
RightForeArm  109.358 72.2051 140.723
RightHand  -0.395267 -10.4985 7.33611
LeftUpLeg  -10.0371 20.7194 5.00653
LeftLeg  25.7716 2.07846 1.43414
LeftFoot  -0.912342 0.489238 -5.29971
LeftToes  -6.27559e-011 -2.10356e-011 8.24929e-012
